<svg width="435" height="263" viewBox="0 0 435 263" fill="none" xmlns="http://www.w3.org/2000/svg">
<g clip-path="url(#clip0_262_604)">
<path d="M355.002 50.9475C353.655 43.3852 350.245 36.3455 345.15 30.6099C340.056 24.8743 333.477 20.6672 326.143 18.4559C318.809 16.2445 311.007 16.1154 303.605 18.0828C296.202 20.0502 289.488 24.0372 284.208 29.6011C278.927 35.1649 275.287 42.0879 273.692 49.6015C272.097 57.115 272.609 64.9251 275.171 72.1644C277.733 79.4038 282.245 85.7892 288.206 90.6117C294.167 95.4342 301.344 98.5051 308.939 99.4834L326.125 150.345L360.345 109.547C360.345 109.547 349.69 100.004 342.805 88.3284C347.761 83.5948 351.469 77.7026 353.598 71.1791C355.727 64.6556 356.21 57.7043 355.004 50.9475H355.002Z" fill="#ED9DA0"/>
<path d="M351.66 97.74C351.66 97.74 406.396 106.998 413.618 118.107C420.84 129.216 428.543 145.156 428.543 145.156C428.543 145.156 449.246 248.513 416.507 263.002L284.255 244.084L300.474 195.385L284.105 244.164L245.812 238.015C245.812 238.015 268.7 124.386 281.698 116.658C294.696 108.93 310.946 111.007 310.946 111.007C310.946 111.007 336.823 136.802 351.388 97.7504L351.66 97.74Z" fill="#E6E6E6"/>
<path d="M322.168 34.3629C322.168 34.3629 310.585 37.9333 305.77 32.1373C305.77 32.1373 294.215 32.6205 291.808 38.8997C289.401 45.1788 274.955 48.0762 270.142 42.7634C265.329 37.4507 258.105 27.7915 267.253 19.0953C267.253 19.0953 268.698 9.91877 276.401 7.98715L280.735 11.8509C280.735 11.8509 337.969 -15.1503 344.739 12.3565C344.739 12.3565 355.104 10.3965 350.176 16.6778C350.176 16.6778 355.727 23.1347 359.249 35.3794C361.928 44.7985 361.818 54.7961 358.932 64.1535C356.045 73.5109 350.508 81.8239 342.994 88.0791C342.994 88.0791 355.302 55.6702 344.739 65.1543C334.177 74.6385 334.658 52.9042 334.658 52.9042C334.658 52.9042 318.826 43.3497 322.168 34.3629Z" fill="#090814"/>
<path d="M269.94 204.696L350.5 247.757L365.989 224.847L281.8 182.486C280.044 176.32 275.42 170.484 268.664 166.855C256.844 160.504 243.015 163.31 237.776 173.126C232.537 182.942 237.871 196.042 249.692 202.393C256.447 206.022 263.853 206.647 269.942 204.698L269.94 204.696Z" fill="#ED9DA0"/>
<path d="M382.804 185.724L386.656 197.316C386.656 197.316 377.508 207.114 386.656 212.599L354.398 208.424C354.398 208.424 341.339 198.762 340.406 206.734C340.406 206.734 324.066 195.868 320.695 202.63C320.695 202.63 330.36 223.594 315.176 234.363L335.38 243.476L349.77 253.246L416.506 263.001" fill="#E6E6E6"/>
<path d="M202.575 84.4477L68.4448 67.2932C68.0843 67.2468 67.7211 67.2231 67.3576 67.2223C66.9986 67.2217 66.6399 67.2445 66.2839 67.2905C65.9284 67.3364 65.5762 67.4056 65.2297 67.4977C64.8783 67.5916 64.5333 67.7081 64.1968 67.8467C63.8681 67.9822 63.5478 68.1375 63.2378 68.3119C62.9235 68.4875 62.6198 68.6817 62.3283 68.8933C62.0303 69.1104 61.7448 69.3444 61.4732 69.594C61.1927 69.8509 60.9261 70.1227 60.6746 70.4082C60.4164 70.7022 60.1735 71.0093 59.9466 71.3282C59.7176 71.6511 59.5025 71.987 59.3013 72.336C59.1002 72.6851 58.9137 73.0486 58.7419 73.4267C58.5701 73.8045 58.4132 74.1951 58.2711 74.5987C58.1243 75.0157 57.9957 75.442 57.8851 75.8775C57.7746 76.3131 57.6822 76.7562 57.6079 77.2071C57.5354 77.6575 57.4798 78.1153 57.441 78.5803C57.4022 79.0453 57.3828 79.5161 57.3828 79.9927C57.3828 80.4686 57.4022 80.9431 57.441 81.4161C57.4798 81.8891 57.5354 82.3581 57.6079 82.8231C57.6829 83.2902 57.7757 83.7527 57.8862 84.2104C57.9968 84.6682 58.1254 85.1206 58.2722 85.5678C58.4139 86.0001 58.5708 86.4224 58.743 86.8347C58.9152 87.2469 59.1016 87.6485 59.3024 88.0393C59.5032 88.4298 59.7183 88.8088 59.9477 89.1764C60.1771 89.5439 60.4198 89.8993 60.6757 90.2425C60.9323 90.5839 61.1985 90.9097 61.4743 91.2198C61.7501 91.5299 62.0353 91.8208 62.33 92.0923C62.6243 92.3657 62.9274 92.6202 63.2395 92.8558C63.5478 93.0902 63.8679 93.3086 64.1985 93.5103C64.5322 93.7141 64.877 93.8991 65.2314 94.0643C65.5743 94.2247 65.9262 94.3647 66.2855 94.4837C66.6373 94.6002 66.9959 94.6951 67.3592 94.7678C67.7182 94.8397 68.0813 94.8892 68.4465 94.9162L202.577 104.759C202.967 104.787 203.359 104.748 203.736 104.642C203.928 104.589 204.115 104.52 204.295 104.435C204.484 104.347 204.666 104.245 204.839 104.13C205.014 104.014 205.182 103.886 205.341 103.748C205.507 103.602 205.665 103.447 205.814 103.283C205.97 103.109 206.118 102.927 206.256 102.738C206.398 102.543 206.535 102.336 206.667 102.115C206.798 101.895 206.922 101.665 207.039 101.427C207.156 101.187 207.265 100.939 207.365 100.681C207.466 100.423 207.56 100.157 207.649 99.8821C207.736 99.6069 207.815 99.3235 207.887 99.0319C207.962 98.7305 208.027 98.4235 208.081 98.1108C208.135 97.7981 208.182 97.4811 208.221 97.1597C208.257 96.838 208.285 96.512 208.305 96.1819C208.325 95.8518 208.334 95.5178 208.333 95.1801C208.333 94.8427 208.324 94.5071 208.305 94.1734C208.287 93.8396 208.259 93.5081 208.221 93.1787C208.185 92.8497 208.138 92.5224 208.081 92.197C208.024 91.8717 207.959 91.5515 207.887 91.2367C207.814 90.9306 207.735 90.6314 207.649 90.3391C207.563 90.0467 207.468 89.7626 207.365 89.4867C207.262 89.2067 207.153 88.9353 207.039 88.6725C206.925 88.4096 206.801 88.1551 206.667 87.909C206.535 87.6621 206.398 87.4272 206.256 87.2044C206.113 86.9815 205.966 86.7703 205.814 86.5707C205.661 86.3711 205.503 86.1842 205.341 86.0101C205.182 85.8396 205.015 85.6777 204.839 85.5253C204.666 85.3758 204.485 85.2374 204.295 85.1108C204.116 84.9913 203.929 84.8845 203.736 84.7912C203.551 84.7022 203.359 84.6276 203.162 84.5682C202.97 84.5105 202.774 84.4687 202.576 84.4433" fill="#022648"/>
<path d="M202.574 123.137L68.4442 119.914C67.7166 119.896 66.9895 119.971 66.2805 120.136C65.9229 120.219 65.5708 120.325 65.2264 120.453C64.8733 120.583 64.5284 120.734 64.1935 120.906C63.8636 121.076 63.5435 121.264 63.2345 121.469C62.9194 121.678 62.6158 121.904 62.325 122.146C62.0265 122.395 61.7409 122.658 61.4693 122.936C61.1931 123.218 60.9269 123.518 60.6707 123.836C60.4144 124.154 60.1718 124.486 59.9427 124.832C59.7137 125.177 59.4986 125.535 59.2974 125.906C59.0963 126.277 58.9098 126.66 58.738 127.056C58.5662 127.452 58.4093 127.859 58.2672 128.277C58.1204 128.71 57.9918 129.15 57.8812 129.597C57.7707 130.044 57.6783 130.496 57.604 130.955C57.5315 131.413 57.4759 131.877 57.4371 132.346C57.3983 132.815 57.3789 133.288 57.3789 133.764C57.3789 134.24 57.3983 134.713 57.4371 135.182C57.4759 135.651 57.5315 136.114 57.604 136.572C57.679 137.028 57.7718 137.479 57.8823 137.925C57.9929 138.371 58.1215 138.81 58.2683 139.243C58.41 139.662 58.567 140.069 58.7391 140.464C58.9113 140.858 59.0977 141.24 59.2985 141.609C59.4993 141.979 59.7142 142.335 59.9433 142.679C60.1723 143.023 60.415 143.353 60.6712 143.667C60.9278 143.984 61.194 144.282 61.4698 144.562C61.7414 144.838 62.027 145.1 62.3255 145.347C62.6173 145.587 62.9218 145.812 63.2377 146.019C63.5468 146.222 63.867 146.408 64.1967 146.575C64.5317 146.745 64.8767 146.894 65.2297 147.022C65.5742 147.148 65.9263 147.251 66.2838 147.332C66.9931 147.495 67.7203 147.565 68.4475 147.542L202.577 143.449C202.774 143.443 202.97 143.42 203.163 143.381C203.359 143.341 203.55 143.285 203.737 143.214C203.93 143.14 204.117 143.051 204.296 142.949C204.485 142.841 204.667 142.72 204.84 142.587C205.015 142.452 205.183 142.306 205.342 142.151C205.508 141.988 205.666 141.817 205.815 141.637C205.967 141.455 206.114 141.259 206.257 141.047C206.399 140.835 206.536 140.614 206.668 140.382C206.799 140.148 206.923 139.905 207.04 139.654C207.157 139.403 207.266 139.143 207.366 138.875C207.468 138.603 207.563 138.325 207.65 138.043C207.737 137.76 207.816 137.469 207.887 137.17C207.963 136.864 208.028 136.552 208.082 136.234C208.136 135.916 208.183 135.594 208.222 135.268C208.258 134.941 208.286 134.611 208.306 134.28C208.326 133.948 208.335 133.613 208.334 133.275C208.334 132.941 208.325 132.607 208.306 132.273C208.288 131.939 208.259 131.61 208.222 131.285C208.186 130.958 208.139 130.636 208.082 130.32C208.025 130.004 207.96 129.691 207.887 129.38C207.815 129.081 207.736 128.79 207.649 128.507C207.563 128.225 207.469 127.949 207.366 127.681C207.265 127.413 207.156 127.154 207.04 126.903C206.924 126.653 206.8 126.411 206.668 126.179C206.536 125.946 206.399 125.725 206.257 125.516C206.114 125.307 205.967 125.111 205.815 124.928C205.666 124.75 205.508 124.579 205.342 124.417C205.183 124.263 205.015 124.119 204.84 123.985C204.667 123.853 204.485 123.733 204.296 123.626C204.116 123.525 203.929 123.438 203.736 123.366C203.55 123.296 203.358 123.241 203.163 123.202C202.969 123.164 202.773 123.143 202.576 123.138" fill="#E6E6E6"/>
<path d="M202.576 159.408L68.4454 169.249C68.0803 169.276 67.7172 169.325 67.3581 169.397C66.9948 169.47 66.6362 169.565 66.2844 169.681C65.9252 169.8 65.5732 169.94 65.2303 170.101C64.876 170.266 64.5311 170.451 64.1974 170.655C63.8668 170.856 63.5467 171.075 63.2384 171.309C62.9263 171.548 62.6232 171.803 62.3289 172.073C62.0346 172.342 61.7493 172.633 61.4732 172.945C61.197 173.254 60.9308 173.58 60.6746 173.922C60.4183 174.265 60.1757 174.621 59.9466 174.99C59.7176 175.358 59.5025 175.737 59.3013 176.127C59.1002 176.517 58.9137 176.918 58.7419 177.331C58.5701 177.744 58.4132 178.166 58.2711 178.598C58.1243 179.045 57.9957 179.497 57.8851 179.956C57.7746 180.414 57.6822 180.876 57.6079 181.341C57.5354 181.806 57.4798 182.276 57.441 182.748C57.4022 183.221 57.3828 183.695 57.3828 184.172C57.3828 184.648 57.4022 185.119 57.441 185.584C57.4798 186.049 57.5354 186.507 57.6079 186.958C57.6829 187.41 57.7757 187.853 57.8862 188.288C57.9968 188.723 58.1254 189.149 58.2722 189.567C58.4139 189.971 58.5708 190.361 58.743 190.739C58.9152 191.116 59.1016 191.48 59.3024 191.829C59.5032 192.18 59.7183 192.515 59.9477 192.837C60.1746 193.156 60.4175 193.463 60.6757 193.757C60.9272 194.042 61.1938 194.314 61.4743 194.571C61.7461 194.821 62.0318 195.054 62.33 195.272C62.6215 195.483 62.9252 195.677 63.2395 195.853C63.5494 196.027 63.8697 196.183 64.1985 196.318C64.5349 196.457 64.8799 196.573 65.2314 196.667C65.5779 196.759 65.93 196.828 66.2855 196.874C66.6416 196.92 67.0002 196.943 67.3592 196.942C67.7228 196.941 68.0859 196.918 68.4465 196.871L202.576 179.721C202.774 179.696 202.97 179.654 203.162 179.596C203.359 179.537 203.551 179.462 203.736 179.373C203.929 179.28 204.116 179.173 204.295 179.054C204.485 178.927 204.666 178.789 204.839 178.639C205.015 178.487 205.182 178.325 205.341 178.154C205.501 177.98 205.659 177.793 205.814 177.594C205.968 177.394 206.116 177.183 206.256 176.96C206.398 176.737 206.535 176.502 206.667 176.255C206.798 176.009 206.922 175.754 207.039 175.492C207.156 175.228 207.265 174.956 207.365 174.678C207.466 174.4 207.56 174.114 207.649 173.82C207.736 173.53 207.815 173.23 207.886 172.923C207.962 172.606 208.027 172.285 208.081 171.962C208.135 171.638 208.182 171.311 208.221 170.98C208.257 170.651 208.285 170.32 208.305 169.986C208.325 169.651 208.334 169.315 208.333 168.978C208.333 168.642 208.323 168.309 208.305 167.979C208.286 167.648 208.258 167.322 208.22 167.001C208.184 166.678 208.138 166.36 208.081 166.048C208.025 165.736 207.96 165.429 207.886 165.127C207.814 164.836 207.735 164.553 207.649 164.277C207.563 164.001 207.469 163.735 207.366 163.478C207.262 163.22 207.154 162.972 207.039 162.732C206.925 162.493 206.8 162.264 206.665 162.045C206.533 161.824 206.396 161.617 206.254 161.423C206.116 161.234 205.969 161.052 205.812 160.878C205.664 160.713 205.506 160.558 205.339 160.412C205.18 160.274 205.013 160.147 204.837 160.031C204.664 159.915 204.482 159.813 204.294 159.725C204.113 159.641 203.926 159.572 203.734 159.518C203.357 159.413 202.965 159.373 202.575 159.402" fill="#022648"/>
<path d="M14.8783 118.527C14.4311 118.56 13.986 118.618 13.5453 118.701C13.1017 118.785 12.663 118.893 12.2313 119.025C11.7931 119.159 11.3624 119.317 10.9413 119.498C10.5101 119.683 10.089 119.891 9.67947 120.12C9.27899 120.347 8.88738 120.592 8.50465 120.858C8.12193 121.123 7.75045 121.408 7.39019 121.713C7.02994 122.018 6.68037 122.342 6.3415 122.687C6.00263 123.032 5.67645 123.395 5.36295 123.778C5.04872 124.16 4.75099 124.556 4.46974 124.965C4.1885 125.375 3.92465 125.797 3.6782 126.232C3.43392 126.668 3.20559 127.115 2.99321 127.573C2.78082 128.03 2.58764 128.5 2.41368 128.981C2.23246 129.479 2.0739 129.983 1.93799 130.491C1.80208 131 1.68864 131.513 1.59767 132.03C1.50633 132.547 1.43803 133.067 1.39272 133.592C1.34742 134.116 1.32458 134.642 1.32422 135.17C1.32422 135.698 1.34706 136.22 1.39272 136.734C1.43839 137.249 1.5067 137.756 1.59767 138.255C1.68827 138.754 1.80172 139.245 1.93799 139.727C2.07426 140.21 2.23229 140.681 2.41205 141.141C2.58747 141.586 2.78065 142.017 2.99158 142.433C3.20016 142.845 3.42913 143.245 3.67765 143.633C3.92237 144.015 4.18657 144.384 4.46919 144.738C4.74918 145.09 5.04752 145.427 5.36295 145.748C5.67284 146.063 5.99949 146.361 6.3415 146.641C6.67678 146.915 7.02707 147.17 7.39073 147.405C8.10825 147.868 8.87635 148.247 9.68 148.535C10.5039 148.831 11.3601 149.026 12.2302 149.117C12.6667 149.162 13.1055 149.181 13.5442 149.175C13.99 149.169 14.435 149.137 14.8772 149.08C15.3234 149.023 15.766 148.941 16.2032 148.835C16.6417 148.729 17.0742 148.599 17.4987 148.445C17.928 148.29 18.3488 148.112 18.7594 147.912C19.1777 147.708 19.5854 147.483 19.9809 147.238C20.3662 146.997 20.7413 146.739 21.1063 146.463C21.4713 146.187 21.825 145.893 22.1675 145.581C22.51 145.268 22.8405 144.939 23.1591 144.592C23.4777 144.246 23.7841 143.882 24.0784 143.502C24.3745 143.121 24.653 142.73 24.914 142.326C25.1749 141.923 25.4195 141.51 25.6479 141.085C25.8758 140.661 26.0868 140.227 26.2807 139.782C26.4746 139.338 26.6513 138.885 26.8107 138.422C26.976 137.943 27.121 137.459 27.2456 136.972C27.3703 136.485 27.4738 135.994 27.5561 135.5C27.6387 135.005 27.7009 134.508 27.7425 134.009C27.7842 133.509 27.805 133.008 27.805 132.504C27.805 132 27.7842 131.502 27.7425 131.01C27.7009 130.519 27.6387 130.035 27.5561 129.557C27.4734 129.081 27.37 128.611 27.2456 128.148C27.1213 127.685 26.9764 127.231 26.8107 126.785C26.6505 126.354 26.4739 125.936 26.2807 125.53C26.0875 125.125 25.8757 124.733 25.6452 124.355C25.1938 123.604 24.669 122.9 24.0784 122.254C23.7885 121.936 23.4824 121.633 23.1613 121.347C22.8451 121.067 22.5141 120.803 22.1696 120.558C21.8285 120.316 21.4742 120.092 21.1085 119.889C20.7429 119.687 20.3663 119.504 19.9804 119.344C19.1839 119.01 18.3509 118.772 17.4987 118.635C17.0698 118.566 16.6372 118.523 16.2032 118.505C15.7611 118.487 15.3184 118.494 14.8772 118.527" fill="#E6E6E6"/>
<path d="M14.8809 59.324C14.4361 59.3132 13.991 59.3277 13.5478 59.3676C13.1065 59.4074 12.6677 59.4725 12.2339 59.5629C11.7975 59.6544 11.3668 59.7709 10.9438 59.9119C10.5142 60.0546 10.0929 60.2214 9.68199 60.4114C9.27977 60.5972 8.88763 60.8042 8.50719 61.0315C8.12304 61.2612 7.75103 61.5107 7.39271 61.7792C7.02852 62.0521 6.67833 62.3433 6.34349 62.6517C6.00317 62.9651 5.67699 63.2974 5.36494 63.6486C5.05289 63.9998 4.75515 64.3668 4.47173 64.7497C4.19049 65.1321 3.92664 65.5286 3.68019 65.9391C3.43374 66.3495 3.20487 66.7756 2.99357 67.2174C2.78119 67.6537 2.58801 68.1045 2.41404 68.5698C2.23283 69.0494 2.0748 69.5367 1.93998 70.0319C1.80516 70.5271 1.69173 71.0288 1.59967 71.5371C1.50834 72.0461 1.44001 72.56 1.39471 73.0788C1.34941 73.5976 1.32657 74.1207 1.32621 74.6483C1.32621 75.1758 1.34905 75.699 1.39471 76.2178C1.44038 76.7366 1.5087 77.25 1.59967 77.7579C1.69064 78.2668 1.80407 78.7678 1.93998 79.2608C2.07589 79.7538 2.23391 80.2403 2.41404 80.7202C2.58946 81.1826 2.78264 81.6322 2.99357 82.0688C3.2045 82.5055 3.43392 82.9277 3.68182 83.3357C3.92827 83.745 4.19211 84.1399 4.47336 84.5202C4.7546 84.9005 5.05234 85.2657 5.36656 85.6158C5.68115 85.9644 6.00735 86.2938 6.34513 86.6039C6.67816 86.9111 7.02653 87.201 7.38892 87.4727C7.74729 87.7387 8.11928 87.9857 8.50338 88.2127C8.88388 88.4378 9.27604 88.6424 9.67819 88.8257C10.0893 89.013 10.5105 89.1768 10.94 89.3165C11.7851 89.5907 12.6589 89.7662 13.544 89.8395C14.4304 89.9132 15.3222 89.8862 16.2025 89.7588C16.6389 89.6955 17.0715 89.6074 17.498 89.4948C17.9255 89.3818 18.3464 89.2447 18.7587 89.0842C19.1756 88.922 19.5834 88.737 19.9802 88.5301C20.3673 88.3286 20.7438 88.1072 21.1083 87.867C21.4748 87.625 21.829 87.3647 22.1695 87.0871C22.512 86.8083 22.8425 86.5111 23.1611 86.1955C23.4796 85.8799 23.7861 85.5462 24.0804 85.1942C24.3765 84.8423 24.655 84.4776 24.9159 84.1003C25.1769 83.7229 25.4215 83.333 25.6499 82.9305C25.8786 82.528 26.0895 82.1143 26.2827 81.6893C26.4758 81.2643 26.6525 80.828 26.8127 80.3804C26.978 79.9176 27.123 79.4486 27.2476 78.9734C27.3723 78.4983 27.4758 78.0176 27.5581 77.5315C27.6407 77.0436 27.7028 76.5517 27.7445 76.0558C27.7862 75.5599 27.8071 75.0602 27.8071 74.5567C27.8071 74.0531 27.7862 73.5536 27.7445 73.0581C27.7028 72.5625 27.6407 72.0717 27.5581 71.5856C27.4754 71.0999 27.3719 70.6196 27.2476 70.1448C27.1233 69.67 26.9784 69.2017 26.8127 68.74C26.6525 68.2939 26.4758 67.8589 26.2827 67.435C26.0895 67.011 25.8777 66.598 25.6472 66.1959C25.4192 65.796 25.1746 65.4085 24.9132 65.0333C24.6519 64.6581 24.3743 64.2945 24.0804 63.9426C23.7883 63.5943 23.4825 63.263 23.1632 62.9489C22.8439 62.6348 22.5134 62.3396 22.1717 62.0633C21.8313 61.7874 21.4773 61.5289 21.111 61.2889C20.7464 61.0515 20.3699 60.833 19.983 60.6345C19.586 60.4304 19.1782 60.2483 18.7614 60.0891C18.349 59.9313 17.9281 59.7969 17.5007 59.6867C17.074 59.5768 16.6415 59.4914 16.2052 59.4309C15.7656 59.3694 15.3229 59.333 14.8792 59.3218M14.8792 57.8674C16.8262 57.9209 18.7357 58.4167 20.4641 59.3175C22.1817 60.2184 23.7041 61.4522 24.9431 62.9473C26.2384 64.5053 27.2471 66.2819 27.9223 68.1941C29.3681 72.3101 29.3681 76.7983 27.9223 80.9143C27.2465 82.8322 26.2379 84.6152 24.9431 86.1808C23.7036 87.682 22.1814 88.9236 20.4635 89.8346C18.7374 90.7461 16.8282 91.2543 14.8787 91.3212C12.9171 91.3857 10.9671 90.9956 9.18022 90.1814C7.37636 89.3525 5.76262 88.1587 4.44019 86.6748C3.03587 85.1036 1.93677 83.2829 1.19954 81.3064C-0.397242 77.0037 -0.397242 72.2683 1.19954 67.9656C1.93745 65.9831 3.03633 64.1555 4.44019 62.5759C5.76226 61.0839 7.37558 59.88 9.18022 59.0388C10.9657 58.2131 12.9166 57.8107 14.8819 57.8625L14.8792 57.8674Z" fill="#022648"/>
<path d="M14.8791 78.7133L10.3125 69.173L11.3965 68.464L15.1569 76.3018L30.9454 57.6858L31.9011 58.7072L14.8791 78.7133Z" fill="#022648"/>
<path d="M14.8809 172.775C14.4361 172.765 13.991 172.779 13.5478 172.819C13.1065 172.859 12.6677 172.924 12.2339 173.014C11.7975 173.106 11.3668 173.222 10.9438 173.363C10.5142 173.506 10.0929 173.673 9.68199 173.863C9.27977 174.049 8.88763 174.256 8.50719 174.483C8.12304 174.713 7.75103 174.962 7.39271 175.231C7.02852 175.503 6.67833 175.795 6.34349 176.103C6.00317 176.417 5.67699 176.749 5.36494 177.1C5.05289 177.451 4.75515 177.818 4.47173 178.201C4.19049 178.584 3.92664 178.98 3.68019 179.39C3.43374 179.801 3.20487 180.227 2.99357 180.669C2.78119 181.105 2.58801 181.556 2.41404 182.021C2.23283 182.501 2.0748 182.988 1.93998 183.483C1.80516 183.979 1.69173 184.48 1.59967 184.988C1.50834 185.497 1.44001 186.011 1.39471 186.53C1.34941 187.049 1.32657 187.572 1.32621 188.1C1.32621 188.627 1.34905 189.15 1.39471 189.669C1.44038 190.188 1.5087 190.701 1.59967 191.209C1.69064 191.718 1.80407 192.219 1.93998 192.712C2.07589 193.205 2.23391 193.692 2.41404 194.172C2.58946 194.634 2.78264 195.084 2.99357 195.52C3.2045 195.957 3.43392 196.379 3.68182 196.787C3.92827 197.196 4.19211 197.591 4.47336 197.972C4.7546 198.352 5.05234 198.717 5.36656 199.067C5.68115 199.416 6.00735 199.745 6.34513 200.055C6.67816 200.363 7.02653 200.652 7.38892 200.924C7.74729 201.19 8.11928 201.437 8.50338 201.664C8.88388 201.889 9.27604 202.094 9.67819 202.277C10.0893 202.464 10.5105 202.628 10.94 202.768C11.7851 203.042 12.6589 203.218 13.544 203.291C14.4304 203.365 15.3222 203.338 16.2025 203.21C16.6389 203.147 17.0715 203.059 17.498 202.946C17.9255 202.833 18.3464 202.696 18.7587 202.536C19.1756 202.373 19.5834 202.188 19.9802 201.982C20.3673 201.78 20.7438 201.559 21.1083 201.318C21.4748 201.076 21.829 200.816 22.1695 200.539C22.512 200.26 22.8425 199.962 23.1611 199.647C23.4796 199.331 23.7861 198.998 24.0804 198.646C24.3765 198.294 24.655 197.929 24.9159 197.552C25.1769 197.174 25.4215 196.784 25.6499 196.382C25.8786 195.979 26.0895 195.566 26.2827 195.141C26.4758 194.716 26.6525 194.279 26.8127 193.832C26.978 193.369 27.123 192.9 27.2476 192.425C27.3723 191.95 27.4758 191.469 27.5581 190.983C27.6407 190.495 27.7028 190.003 27.7445 189.507C27.7862 189.011 27.8071 188.512 27.8071 188.008C27.8071 187.505 27.7862 187.005 27.7445 186.509C27.7028 186.014 27.6407 185.523 27.5581 185.037C27.4754 184.551 27.3719 184.071 27.2476 183.596C27.1233 183.121 26.9784 182.653 26.8127 182.191C26.6525 181.745 26.4758 181.31 26.2827 180.886C26.0895 180.462 25.8777 180.049 25.6472 179.647C25.4192 179.247 25.1746 178.86 24.9132 178.485C24.6519 178.109 24.3743 177.746 24.0804 177.394C23.7883 177.046 23.4825 176.714 23.1632 176.4C22.8439 176.086 22.5134 175.791 22.1717 175.515C21.8313 175.239 21.4773 174.98 21.111 174.74C20.7464 174.503 20.3699 174.284 19.983 174.086C19.586 173.882 19.1782 173.7 18.7614 173.541C18.349 173.383 17.9281 173.248 17.5007 173.138C17.074 173.028 16.6415 172.943 16.2052 172.882C15.7656 172.821 15.3229 172.784 14.8792 172.773M14.8792 171.319C16.8262 171.372 18.7357 171.868 20.4641 172.769C22.1817 173.67 23.7041 174.904 24.9431 176.399C26.2384 177.957 27.2471 179.733 27.9223 181.646C29.3681 185.762 29.3681 190.25 27.9223 194.366C27.2465 196.284 26.2379 198.067 24.9431 199.632C23.7036 201.133 22.1814 202.375 20.4635 203.286C18.7374 204.198 16.8282 204.706 14.8787 204.773C12.9171 204.837 10.9671 204.447 9.18022 203.633C7.37636 202.804 5.76262 201.61 4.44019 200.126C3.03587 198.555 1.93677 196.734 1.19954 194.758C-0.397242 190.455 -0.397242 185.72 1.19954 181.417C1.93745 179.435 3.03633 177.607 4.44019 176.027C5.76226 174.535 7.37558 173.331 9.18022 172.49C10.9657 171.665 12.9166 171.262 14.8819 171.314L14.8792 171.319Z" fill="#022648"/>
<path d="M14.8791 192.165L10.3125 182.624L11.3965 181.915L15.1569 189.753L30.9454 171.137L31.9011 172.159L14.8791 192.165Z" fill="#022648"/>
</g>
<defs>
<clipPath id="clip0_262_604">
<rect width="435" height="263" fill="white"/>
</clipPath>
</defs>
</svg>
