<svg width="435" height="334" viewBox="0 0 435 334" fill="none" xmlns="http://www.w3.org/2000/svg">
<g clip-path="url(#clip0_251_541)">
<path d="M70.7129 333.15C70.7129 333.621 70.9733 334 71.2969 334H362.609C362.935 334 363.193 333.622 363.193 333.15C363.193 332.678 362.935 332.3 362.609 332.3H71.2969C70.9733 332.3 70.7129 332.679 70.7129 333.15Z" fill="#E6E6E6"/>
<path d="M176.534 330.348H166.133V332.169H176.534V330.348Z" fill="#B6B3C5"/>
<path d="M268.612 330.652H258.211V332.474H268.612V330.652Z" fill="#B6B3C5"/>
<path d="M232.286 249.278C231.707 252.756 229.903 255.916 227.194 258.197C224.486 260.477 221.05 261.729 217.499 261.729C213.948 261.729 210.512 260.477 207.804 258.197C205.096 255.916 203.291 252.756 202.713 249.278H164.883V330.651H270.117V249.278H232.286Z" fill="#D6D6E3"/>
<path d="M270.421 324.203H165.189V327.036H270.421V324.203Z" fill="#090814"/>
<path d="M429.133 251.404H5.86652C4.31111 251.403 2.81985 250.789 1.72001 249.697C0.62017 248.606 0.00158341 247.125 0 245.582L0 5.82239C0.00143948 4.27847 0.619962 2.79818 1.71982 1.70642C2.81968 0.614649 4.31101 0.000595289 5.86652 -0.000976562H429.133C430.689 0.000595289 432.18 0.614649 433.28 1.70642C434.38 2.79818 434.999 4.27847 435 5.82239V245.582C434.998 247.125 434.38 248.606 433.28 249.697C432.18 250.789 430.689 251.403 429.133 251.404Z" fill="#090814"/>
<path d="M424.054 9.21591H9.85547V241.189H424.054V9.21591Z" fill="white"/>
<path d="M152.249 37.6436C153.755 37.6436 155.227 38.0867 156.478 38.9169C157.73 39.7472 158.706 40.9272 159.282 42.3079C159.858 43.6885 160.009 45.2077 159.715 46.6734C159.422 48.1391 158.697 49.4854 157.632 50.5421C156.567 51.5988 155.211 52.3184 153.734 52.61C152.258 52.9015 150.727 52.7519 149.336 52.18C147.945 51.6081 146.756 50.6397 145.92 49.3971C145.083 48.1546 144.637 46.6938 144.637 45.1994C144.637 43.1954 145.439 41.2736 146.866 39.8566C148.294 38.4396 150.23 37.6436 152.249 37.6436Z" fill="#022648"/>
<path d="M184.874 37.6436C186.38 37.6436 187.852 38.0867 189.103 38.9169C190.355 39.7472 191.331 40.9272 191.907 42.3079C192.483 43.6885 192.634 45.2077 192.34 46.6734C192.047 48.1391 191.322 49.4854 190.257 50.5421C189.192 51.5988 187.836 52.3184 186.359 52.61C184.883 52.9015 183.352 52.7519 181.961 52.18C180.57 51.6081 179.381 50.6397 178.545 49.3971C177.708 48.1546 177.262 46.6938 177.262 45.1994C177.262 43.1954 178.064 41.2736 179.491 39.8566C180.919 38.4396 182.855 37.6436 184.874 37.6436Z" fill="#022648"/>
<path d="M250.124 37.6436C251.63 37.6436 253.102 38.0867 254.353 38.9169C255.605 39.7472 256.581 40.9272 257.157 42.3079C257.733 43.6885 257.884 45.2077 257.59 46.6734C257.297 48.1391 256.572 49.4854 255.507 50.5421C254.442 51.5988 253.086 52.3184 251.609 52.61C250.133 52.9015 248.602 52.7519 247.211 52.18C245.82 51.6081 244.631 50.6397 243.795 49.3971C242.958 48.1546 242.512 46.6938 242.512 45.1994C242.512 43.1954 243.314 41.2736 244.741 39.8566C246.169 38.4396 248.105 37.6436 250.124 37.6436Z" fill="#E6E6E6"/>
<path d="M282.749 37.6436C284.255 37.6436 285.727 38.0867 286.978 38.9169C288.23 39.7472 289.206 40.9272 289.782 42.3079C290.358 43.6885 290.509 45.2077 290.215 46.6734C289.922 48.1391 289.197 49.4854 288.132 50.5421C287.067 51.5988 285.711 52.3184 284.234 52.61C282.758 52.9015 281.227 52.7519 279.836 52.18C278.445 51.6081 277.256 50.6397 276.42 49.3971C275.583 48.1546 275.137 46.6938 275.137 45.1994C275.137 43.1954 275.939 41.2736 277.366 39.8566C278.794 38.4396 280.73 37.6436 282.749 37.6436Z" fill="#E6E6E6"/>
<path d="M151.162 43.0405H224.521V47.3581H151.162V43.0405Z" fill="#022648"/>
<path d="M222.393 43.0405H284.38V47.3581H222.393V43.0405Z" fill="#E6E6E6"/>
<path d="M217.499 37.6436C219.005 37.6436 220.477 38.0867 221.728 38.9169C222.98 39.7472 223.956 40.9272 224.532 42.3079C225.108 43.6885 225.259 45.2077 224.965 46.6734C224.672 48.1391 223.947 49.4854 222.882 50.5421C221.817 51.5988 220.461 52.3184 218.984 52.61C217.508 52.9015 215.977 52.7519 214.586 52.18C213.195 51.6081 212.006 50.6397 211.17 49.3971C210.333 48.1546 209.887 46.6938 209.887 45.1994C209.887 43.1954 210.689 41.2736 212.116 39.8566C213.544 38.4396 215.48 37.6436 217.499 37.6436Z" fill="#022648"/>
<path d="M142.462 78.6608H162.037C162.902 78.6608 163.732 79.0019 164.344 79.6092C164.955 80.2165 165.299 81.0401 165.299 81.899C165.299 82.7578 164.955 83.5814 164.344 84.1887C163.732 84.796 162.902 85.1372 162.037 85.1372H142.462C141.596 85.1372 140.767 84.796 140.155 84.1887C139.543 83.5814 139.199 82.7578 139.199 81.899C139.199 81.0401 139.543 80.2165 140.155 79.6092C140.767 79.0019 141.596 78.6608 142.462 78.6608Z" fill="#E6E6E6"/>
<path d="M146.812 87.296H283.837C285.856 87.296 287.792 88.092 289.22 89.509C290.647 90.926 291.449 92.8478 291.449 94.8518C291.449 96.8557 290.647 98.7775 289.22 100.195C287.792 101.612 285.856 102.408 283.837 102.408H146.812C144.793 102.408 142.856 101.612 141.429 100.195C140.001 98.7775 139.199 96.8557 139.199 94.8518C139.199 92.8478 140.001 90.926 141.429 89.509C142.856 88.092 144.793 87.296 146.812 87.296Z" fill="#E6E6E6"/>
<path d="M142.462 115.36H162.037C162.902 115.36 163.732 115.702 164.344 116.309C164.955 116.916 165.299 117.74 165.299 118.599C165.299 119.457 164.955 120.281 164.344 120.888C163.732 121.496 162.902 121.837 162.037 121.837H142.462C141.596 121.837 140.767 121.496 140.155 120.888C139.543 120.281 139.199 119.457 139.199 118.599C139.199 117.74 139.543 116.916 140.155 116.309C140.767 115.702 141.596 115.36 142.462 115.36Z" fill="#E6E6E6"/>
<path d="M146.812 123.996H283.837C285.856 123.996 287.792 124.792 289.22 126.209C290.647 127.626 291.449 129.547 291.449 131.551C291.449 133.555 290.647 135.477 289.22 136.894C287.792 138.311 285.856 139.107 283.837 139.107H146.812C144.793 139.107 142.856 138.311 141.429 136.894C140.001 135.477 139.199 133.555 139.199 131.551C139.199 129.547 140.001 127.626 141.429 126.209C142.856 124.792 144.793 123.996 146.812 123.996Z" fill="#E6E6E6"/>
<path d="M142.462 152.06H162.037C162.902 152.06 163.732 152.401 164.344 153.008C164.955 153.616 165.299 154.439 165.299 155.298C165.299 156.157 164.955 156.981 164.344 157.588C163.732 158.195 162.902 158.536 162.037 158.536H142.462C141.596 158.536 140.767 158.195 140.155 157.588C139.543 156.981 139.199 156.157 139.199 155.298C139.199 154.439 139.543 153.616 140.155 153.008C140.767 152.401 141.596 152.06 142.462 152.06Z" fill="#E6E6E6"/>
<path d="M146.812 160.695H283.837C285.856 160.695 287.792 161.491 289.22 162.908C290.647 164.325 291.449 166.247 291.449 168.251C291.449 170.255 290.647 172.177 289.22 173.594C287.792 175.011 285.856 175.807 283.837 175.807H146.812C144.793 175.807 142.856 175.011 141.429 173.594C140.001 172.177 139.199 170.255 139.199 168.251C139.199 166.247 140.001 164.325 141.429 162.908C142.856 161.491 144.793 160.695 146.812 160.695Z" fill="#E6E6E6"/>
<path d="M146.812 197.395H283.837C285.856 197.395 287.792 198.191 289.22 199.608C290.647 201.025 291.449 202.947 291.449 204.951C291.449 206.955 290.647 208.876 289.22 210.293C287.792 211.71 285.856 212.506 283.837 212.506H146.812C144.793 212.506 142.856 211.71 141.429 210.293C140.001 208.876 139.199 206.955 139.199 204.951C139.199 202.947 140.001 201.025 141.429 199.608C142.856 198.191 144.793 197.395 146.812 197.395Z" fill="#022648"/>
</g>
<defs>
<clipPath id="clip0_251_541">
<rect width="435" height="334" fill="white"/>
</clipPath>
</defs>
</svg>
