<svg width="435" height="360" viewBox="0 0 435 360" fill="none" xmlns="http://www.w3.org/2000/svg">
<g clip-path="url(#clip0_262_705)">
<path d="M359.027 85.3054H357.058V31.2709C357.058 27.1643 356.251 23.0979 354.683 19.3039C353.115 15.5099 350.817 12.0626 347.92 9.15885C345.022 6.25507 341.583 3.95168 337.798 2.3802C334.012 0.808724 329.955 -7.15663e-05 325.858 4.74963e-09H211.637C203.362 4.74964e-09 195.427 3.29461 189.576 9.15905C183.725 15.0235 180.438 22.9774 180.438 31.2709V327.71C180.438 336.004 183.725 343.958 189.576 349.822C195.427 355.687 203.362 358.981 211.637 358.981H325.856C334.13 358.981 342.066 355.687 347.917 349.822C353.768 343.958 357.055 336.004 357.055 327.71V123.769H359.027V85.3054Z" fill="#090814"/>
<path d="M327.119 8.13354H312.21C312.896 9.81833 313.157 11.6463 312.972 13.4563C312.787 15.2664 312.16 17.003 311.148 18.5131C310.135 20.0233 308.767 21.2607 307.165 22.1164C305.563 22.972 303.776 23.4196 301.96 23.4197H236.521C234.706 23.4197 232.918 22.9721 231.316 22.1166C229.714 21.261 228.346 20.0236 227.333 18.5134C226.321 17.0032 225.694 15.2665 225.509 13.4564C225.324 11.6464 225.585 9.81838 226.271 8.13354H212.348C206.168 8.13354 200.241 10.5941 195.872 14.9739C191.502 19.3536 189.047 25.2939 189.047 31.4878V327.496C189.047 333.69 191.502 339.63 195.872 344.01C200.241 348.39 206.168 350.851 212.348 350.851H327.114C333.294 350.85 339.22 348.39 343.59 344.01C347.959 339.631 350.414 333.691 350.414 327.497V31.4884C350.414 25.2951 347.96 19.3554 343.591 14.9757C339.222 10.5961 333.297 8.1351 327.118 8.13409L327.119 8.13354Z" fill="white"/>
<path d="M308.186 160.751C307.898 160.067 307.417 159.482 306.801 159.069C306.186 158.657 305.463 158.434 304.722 158.428H235.582C234.588 158.429 233.636 158.826 232.933 159.53C232.23 160.234 231.835 161.189 231.834 162.185V249.854C231.835 250.85 232.23 251.805 232.933 252.509C233.636 253.214 234.588 253.61 235.582 253.611H304.724C305.718 253.61 306.671 253.214 307.373 252.509C308.076 251.805 308.471 250.85 308.472 249.854V162.185C308.474 161.692 308.378 161.205 308.188 160.751L308.186 160.751ZM307.638 249.854C307.637 250.629 307.329 251.372 306.783 251.919C306.236 252.467 305.495 252.775 304.722 252.776H235.582C234.809 252.776 234.068 252.469 233.521 251.921C232.974 251.373 232.667 250.63 232.666 249.855V162.185C232.667 161.41 232.975 160.668 233.522 160.12C234.068 159.572 234.809 159.264 235.582 159.263H304.724C305.306 159.265 305.875 159.441 306.357 159.769C306.839 160.096 307.213 160.56 307.43 161.101C307.472 161.208 307.509 161.317 307.539 161.428C307.605 161.674 307.639 161.928 307.639 162.182L307.638 249.854Z" fill="#3F3D56"/>
<path d="M293.757 179.126H272.932C272.49 179.126 272.066 178.95 271.754 178.637C271.441 178.324 271.266 177.899 271.266 177.457C271.266 177.014 271.441 176.589 271.754 176.276C272.066 175.963 272.49 175.787 272.932 175.787H293.757C294.199 175.787 294.623 175.963 294.935 176.276C295.248 176.589 295.423 177.014 295.423 177.457C295.423 177.899 295.248 178.324 294.935 178.637C294.623 178.95 294.199 179.126 293.757 179.126Z" fill="#3F3D56"/>
<path d="M293.757 187.893H272.932C272.49 187.893 272.066 187.717 271.754 187.404C271.441 187.091 271.266 186.666 271.266 186.223C271.266 185.78 271.441 185.356 271.754 185.043C272.066 184.729 272.49 184.553 272.932 184.553H293.757C294.199 184.553 294.623 184.729 294.935 185.043C295.248 185.356 295.423 185.78 295.423 186.223C295.423 186.666 295.248 187.091 294.935 187.404C294.623 187.717 294.199 187.893 293.757 187.893Z" fill="#3F3D56"/>
<path d="M262.246 192.885H247.027C246.53 192.885 246.053 192.687 245.702 192.335C245.351 191.982 245.153 191.505 245.152 191.007V173.006C245.153 172.508 245.351 172.03 245.702 171.678C246.053 171.326 246.53 171.128 247.027 171.127H262.246C262.743 171.128 263.22 171.326 263.571 171.678C263.922 172.03 264.12 172.508 264.121 173.006V191.007C264.12 191.505 263.922 191.982 263.571 192.335C263.22 192.687 262.743 192.885 262.246 192.885Z" fill="#022648"/>
<path d="M293.614 205.845H246.547C246.105 205.845 245.681 205.669 245.369 205.356C245.056 205.043 244.881 204.618 244.881 204.175C244.881 203.732 245.056 203.307 245.369 202.994C245.681 202.681 246.105 202.505 246.547 202.505H293.613C293.832 202.505 294.049 202.548 294.251 202.632C294.453 202.716 294.637 202.839 294.791 202.994C294.946 203.149 295.069 203.333 295.153 203.536C295.236 203.739 295.279 203.956 295.279 204.175C295.279 204.394 295.236 204.611 295.153 204.814C295.069 205.017 294.946 205.201 294.791 205.356C294.637 205.511 294.453 205.634 294.251 205.718C294.049 205.802 293.832 205.845 293.613 205.845H293.614Z" fill="#CCCCCC"/>
<path d="M293.614 214.611H246.547C246.105 214.611 245.681 214.435 245.369 214.122C245.056 213.808 244.881 213.384 244.881 212.941C244.881 212.498 245.056 212.073 245.369 211.76C245.681 211.447 246.105 211.271 246.547 211.271H293.613C294.055 211.271 294.479 211.447 294.791 211.76C295.104 212.073 295.279 212.498 295.279 212.941C295.279 213.384 295.104 213.808 294.791 214.122C294.479 214.435 294.055 214.611 293.613 214.611H293.614Z" fill="#CCCCCC"/>
<path d="M293.614 223.379H246.547C246.105 223.379 245.681 223.203 245.369 222.889C245.056 222.576 244.881 222.152 244.881 221.709C244.881 221.266 245.056 220.841 245.369 220.528C245.681 220.215 246.105 220.039 246.547 220.039H293.613C294.055 220.039 294.479 220.215 294.791 220.528C295.104 220.841 295.279 221.266 295.279 221.709C295.279 222.152 295.104 222.576 294.791 222.889C294.479 223.203 294.055 223.379 293.613 223.379H293.614Z" fill="#CCCCCC"/>
<path d="M293.614 232.144H246.547C246.105 232.144 245.681 231.968 245.369 231.655C245.056 231.342 244.881 230.917 244.881 230.475C244.881 230.032 245.056 229.607 245.369 229.294C245.681 228.981 246.105 228.805 246.547 228.805H293.613C294.055 228.805 294.479 228.981 294.791 229.294C295.104 229.607 295.279 230.032 295.279 230.475C295.279 230.917 295.104 231.342 294.791 231.655C294.479 231.968 294.055 232.144 293.613 232.144H293.614Z" fill="#CCCCCC"/>
<path d="M293.614 240.912H246.547C246.105 240.912 245.681 240.736 245.369 240.423C245.056 240.11 244.881 239.685 244.881 239.242C244.881 238.799 245.056 238.375 245.369 238.062C245.681 237.748 246.105 237.573 246.547 237.573H293.613C294.055 237.573 294.479 237.748 294.791 238.062C295.104 238.375 295.279 238.799 295.279 239.242C295.279 239.685 295.104 240.11 294.791 240.423C294.479 240.736 294.055 240.912 293.613 240.912H293.614Z" fill="#CCCCCC"/>
<path d="M271.323 137.305C280.204 137.305 287.403 130.089 287.403 121.189C287.403 112.288 280.204 105.073 271.323 105.073C262.443 105.073 255.244 112.288 255.244 121.189C255.244 130.089 262.443 137.305 271.323 137.305Z" fill="#022648"/>
<path d="M269.73 127.336C269.368 127.336 269.016 127.219 268.726 127.002L268.708 126.988L264.929 124.091C264.75 123.958 264.6 123.79 264.486 123.598C264.372 123.406 264.297 123.194 264.266 122.973C264.235 122.751 264.249 122.526 264.305 122.31C264.362 122.094 264.461 121.892 264.597 121.714C264.732 121.537 264.902 121.389 265.095 121.278C265.289 121.167 265.502 121.096 265.723 121.068C265.944 121.041 266.169 121.058 266.383 121.118C266.598 121.179 266.798 121.281 266.973 121.42L269.42 123.302L275.204 115.739C275.474 115.385 275.874 115.153 276.316 115.094C276.757 115.036 277.204 115.156 277.557 115.427L277.521 115.477L277.558 115.427C277.911 115.699 278.142 116.1 278.2 116.542C278.258 116.985 278.139 117.432 277.868 117.786L271.066 126.678C270.908 126.882 270.706 127.048 270.474 127.161C270.242 127.274 269.988 127.333 269.73 127.332L269.73 127.336Z" fill="white"/>
<path d="M221.14 253.909H318.327C318.457 253.905 318.579 253.851 318.669 253.757C318.759 253.664 318.809 253.54 318.809 253.41C318.809 253.28 318.759 253.156 318.669 253.062C318.579 252.969 318.457 252.915 318.327 252.91H221.14C221.073 252.908 221.007 252.919 220.944 252.944C220.882 252.968 220.825 253.004 220.777 253.051C220.729 253.097 220.691 253.153 220.665 253.215C220.638 253.277 220.625 253.343 220.625 253.41C220.625 253.477 220.638 253.543 220.665 253.605C220.691 253.667 220.729 253.723 220.777 253.769C220.825 253.816 220.882 253.852 220.944 253.876C221.007 253.9 221.073 253.912 221.14 253.909Z" fill="#3F3D56"/>
<path d="M38.5246 164.87C44.5421 164.87 49.4202 159.98 49.4202 153.949C49.4202 147.918 44.5421 143.028 38.5246 143.028C32.5071 143.028 27.6289 147.918 27.6289 153.949C27.6289 159.98 32.5071 164.87 38.5246 164.87Z" fill="#CCCCCC"/>
<path d="M37.4441 158.115C37.1991 158.115 36.9605 158.036 36.7644 157.889L36.7524 157.88L34.1919 155.914C34.0733 155.823 33.9738 155.71 33.899 155.58C33.8242 155.45 33.7756 155.307 33.7559 155.159C33.7363 155.01 33.7461 154.859 33.7846 154.715C33.8232 154.57 33.8898 154.434 33.9807 154.316C34.0715 154.197 34.1849 154.097 34.3142 154.022C34.4435 153.947 34.5864 153.898 34.7345 153.879C34.8826 153.859 35.0331 153.869 35.1775 153.907C35.3218 153.946 35.4572 154.013 35.5758 154.104L37.2342 155.379L41.1535 150.256C41.3371 150.016 41.6083 149.859 41.9074 149.82C42.2065 149.78 42.509 149.861 42.7484 150.045L42.7239 150.078L42.7489 150.045C42.9881 150.229 43.1445 150.501 43.184 150.801C43.2234 151.1 43.1426 151.404 42.9593 151.644L38.3494 157.67C38.2428 157.809 38.1057 157.922 37.9487 157.999C37.7916 158.076 37.619 158.116 37.4441 158.116V158.115Z" fill="white"/>
<path d="M69.1434 179.557C68.9171 179.019 68.5384 178.559 68.054 178.234C67.5696 177.909 67.0009 177.734 66.4181 177.729H12.0132C11.2313 177.73 10.4815 178.041 9.9286 178.596C9.37569 179.15 9.06489 179.901 9.06445 180.685V249.667C9.06489 250.45 9.37569 251.202 9.9286 251.756C10.4815 252.31 11.2313 252.622 12.0132 252.622H66.4181C67.1998 252.621 67.9492 252.309 68.5019 251.755C69.0547 251.201 69.3657 250.45 69.3669 249.667V180.683C69.3679 180.297 69.2919 179.914 69.1434 179.557ZM68.7122 249.669C68.7109 250.278 68.469 250.861 68.0393 251.292C67.6097 251.723 67.0273 251.965 66.4197 251.966H12.0132C11.4052 251.966 10.8221 251.724 10.3922 251.294C9.96228 250.863 9.72076 250.278 9.72076 249.669V180.683C9.72205 180.074 9.96399 179.491 10.3936 179.06C10.8233 178.629 11.4056 178.387 12.0132 178.386H66.4181C66.8766 178.387 67.3241 178.526 67.7035 178.784C68.0829 179.042 68.3769 179.408 68.548 179.834C68.5814 179.919 68.6103 180.006 68.6344 180.094C68.6867 180.287 68.7132 180.487 68.7133 180.687L68.7122 249.669Z" fill="#CCCCCC"/>
<path d="M57.7878 194.015H41.4008C41.0531 194.015 40.7197 193.877 40.4738 193.63C40.228 193.384 40.0898 193.05 40.0898 192.701C40.0898 192.353 40.228 192.018 40.4738 191.772C40.7197 191.526 41.0531 191.387 41.4008 191.387H57.7878C58.1355 191.387 58.469 191.526 58.7148 191.772C58.9607 192.018 59.0988 192.353 59.0988 192.701C59.0988 193.05 58.9607 193.384 58.7148 193.63C58.469 193.877 58.1355 194.015 57.7878 194.015Z" fill="#CCCCCC"/>
<path d="M57.7878 200.914H41.4008C41.0531 200.914 40.7197 200.775 40.4738 200.529C40.228 200.282 40.0898 199.948 40.0898 199.6C40.0898 199.251 40.228 198.917 40.4738 198.671C40.7197 198.424 41.0531 198.286 41.4008 198.286H57.7878C58.1355 198.286 58.469 198.424 58.7148 198.671C58.9607 198.917 59.0988 199.251 59.0988 199.6C59.0988 199.948 58.9607 200.282 58.7148 200.529C58.469 200.775 58.1355 200.914 57.7878 200.914Z" fill="#CCCCCC"/>
<path d="M32.9932 204.842H21.0176C20.6267 204.841 20.2518 204.685 19.9754 204.408C19.6989 204.131 19.5434 203.755 19.543 203.363V189.199C19.5434 188.807 19.6989 188.431 19.9754 188.154C20.2518 187.877 20.6267 187.721 21.0176 187.721H32.9932C33.3841 187.722 33.7588 187.877 34.0353 188.154C34.3117 188.432 34.4672 188.807 34.4678 189.199V203.363C34.4674 203.755 34.3119 204.131 34.0354 204.408C33.759 204.685 33.3841 204.841 32.9932 204.842Z" fill="#CCCCCC"/>
<path d="M57.6734 215.038H20.6391C20.2914 215.038 19.958 214.9 19.7121 214.654C19.4662 214.407 19.3281 214.073 19.3281 213.724C19.3281 213.376 19.4662 213.042 19.7121 212.795C19.958 212.549 20.2914 212.41 20.6391 212.41H57.6734C58.0211 212.41 58.3545 212.549 58.6004 212.795C58.8462 213.042 58.9844 213.376 58.9844 213.724C58.9844 214.073 58.8462 214.407 58.6004 214.654C58.3545 214.9 58.0211 215.038 57.6734 215.038Z" fill="#CCCCCC"/>
<path d="M57.6734 221.939H20.6391C20.2914 221.939 19.958 221.801 19.7121 221.554C19.4662 221.308 19.3281 220.974 19.3281 220.625C19.3281 220.277 19.4662 219.943 19.7121 219.696C19.958 219.45 20.2914 219.311 20.6391 219.311H57.6734C58.0211 219.311 58.3545 219.45 58.6004 219.696C58.8462 219.943 58.9844 220.277 58.9844 220.625C58.9844 220.974 58.8462 221.308 58.6004 221.554C58.3545 221.801 58.0211 221.939 57.6734 221.939Z" fill="#CCCCCC"/>
<path d="M57.6734 228.835H20.6391C20.2914 228.835 19.958 228.697 19.7121 228.45C19.4662 228.204 19.3281 227.87 19.3281 227.521C19.3281 227.173 19.4662 226.838 19.7121 226.592C19.958 226.345 20.2914 226.207 20.6391 226.207H57.6734C58.0211 226.207 58.3545 226.345 58.6004 226.592C58.8462 226.838 58.9844 227.173 58.9844 227.521C58.9844 227.87 58.8462 228.204 58.6004 228.45C58.3545 228.697 58.0211 228.835 57.6734 228.835Z" fill="#CCCCCC"/>
<path d="M57.6734 235.735H20.6391C20.2914 235.735 19.958 235.597 19.7121 235.351C19.4662 235.104 19.3281 234.77 19.3281 234.421C19.3281 234.073 19.4662 233.739 19.7121 233.492C19.958 233.246 20.2914 233.107 20.6391 233.107H57.6734C58.0211 233.107 58.3545 233.246 58.6004 233.492C58.8462 233.739 58.9844 234.073 58.9844 234.421C58.9844 234.77 58.8462 235.104 58.6004 235.351C58.3545 235.597 58.0211 235.735 57.6734 235.735Z" fill="#CCCCCC"/>
<path d="M57.6734 242.632H20.6391C20.2914 242.632 19.958 242.494 19.7121 242.248C19.4662 242.001 19.3281 241.667 19.3281 241.318C19.3281 240.97 19.4662 240.636 19.7121 240.389C19.958 240.143 20.2914 240.004 20.6391 240.004H57.6734C58.0211 240.004 58.3545 240.143 58.6004 240.389C58.8462 240.636 58.9844 240.97 58.9844 241.318C58.9844 241.667 58.8462 242.001 58.6004 242.248C58.3545 242.494 58.0211 242.632 57.6734 242.632Z" fill="#CCCCCC"/>
<path d="M0.394502 252.91H76.8653C76.9694 252.91 77.0692 252.869 77.1427 252.795C77.2163 252.722 77.2576 252.622 77.2576 252.517C77.2576 252.413 77.2163 252.313 77.1427 252.239C77.0692 252.165 76.9694 252.124 76.8653 252.124H0.394502C0.290453 252.123 0.190435 252.164 0.116454 252.238C0.0424726 252.311 0.000582883 252.411 6.03728e-06 252.515C-0.000570808 252.619 0.0402102 252.72 0.113376 252.794C0.186541 252.868 0.286097 252.91 0.390146 252.91H0.394502Z" fill="#CCCCCC"/>
<path d="M134.56 165.869C140.577 165.869 145.455 160.98 145.455 154.949C145.455 148.917 140.577 144.028 134.56 144.028C128.542 144.028 123.664 148.917 123.664 154.949C123.664 160.98 128.542 165.869 134.56 165.869Z" fill="#CCCCCC"/>
<path d="M133.479 159.114C133.234 159.115 132.996 159.036 132.8 158.888L132.788 158.879L130.227 156.914C130.108 156.823 130.009 156.709 129.934 156.579C129.859 156.45 129.811 156.307 129.791 156.158C129.771 156.01 129.781 155.859 129.82 155.714C129.858 155.57 129.925 155.434 130.016 155.315C130.107 155.196 130.22 155.096 130.349 155.021C130.479 154.946 130.621 154.898 130.77 154.878C130.918 154.858 131.068 154.868 131.213 154.907C131.357 154.945 131.492 155.012 131.611 155.103L133.269 156.379L137.189 151.256C137.372 151.016 137.643 150.859 137.943 150.819C138.242 150.78 138.544 150.861 138.784 151.045C139.023 151.229 139.18 151.501 139.219 151.8C139.259 152.1 139.178 152.403 138.994 152.643L134.385 158.67C134.278 158.809 134.141 158.921 133.984 158.998C133.827 159.076 133.655 159.115 133.48 159.115L133.479 159.114Z" fill="white"/>
<path d="M165.179 180.557C164.953 180.019 164.574 179.559 164.09 179.234C163.605 178.909 163.037 178.733 162.454 178.729H108.049C107.267 178.729 106.517 179.041 105.964 179.595C105.411 180.149 105.1 180.901 105.1 181.685V250.666C105.1 251.45 105.411 252.202 105.964 252.756C106.517 253.31 107.267 253.621 108.049 253.622H162.454C163.236 253.62 163.985 253.309 164.538 252.755C165.09 252.201 165.401 251.45 165.403 250.666V181.683C165.404 181.296 165.328 180.912 165.179 180.555V180.557ZM164.748 250.668C164.747 251.277 164.505 251.861 164.075 252.292C163.645 252.722 163.063 252.965 162.455 252.966H108.049C107.441 252.966 106.858 252.724 106.428 252.293C105.998 251.862 105.756 251.278 105.756 250.668V181.683C105.758 181.074 106 180.49 106.429 180.06C106.859 179.629 107.441 179.386 108.049 179.385H162.454C162.913 179.387 163.36 179.526 163.74 179.784C164.119 180.042 164.413 180.407 164.584 180.834C164.618 180.919 164.647 181.005 164.671 181.093C164.723 181.287 164.749 181.486 164.75 181.687L164.748 250.668Z" fill="#CCCCCC"/>
<path d="M153.823 195.015H137.436C137.088 195.015 136.755 194.876 136.509 194.63C136.263 194.383 136.125 194.049 136.125 193.701C136.125 193.352 136.263 193.018 136.509 192.772C136.755 192.525 137.088 192.387 137.436 192.387H153.823C154.171 192.387 154.504 192.525 154.75 192.772C154.996 193.018 155.134 193.352 155.134 193.701C155.134 194.049 154.996 194.383 154.75 194.63C154.504 194.876 154.171 195.015 153.823 195.015Z" fill="#CCCCCC"/>
<path d="M153.823 201.913H137.436C137.088 201.913 136.755 201.775 136.509 201.528C136.263 201.282 136.125 200.948 136.125 200.599C136.125 200.251 136.263 199.916 136.509 199.67C136.755 199.424 137.088 199.285 137.436 199.285H153.822C154.17 199.285 154.504 199.424 154.749 199.67C154.995 199.916 155.133 200.251 155.133 200.599C155.133 200.948 154.995 201.282 154.749 201.528C154.504 201.775 154.17 201.913 153.822 201.913H153.823Z" fill="#CCCCCC"/>
<path d="M129.028 205.841H117.053C116.662 205.841 116.287 205.685 116.01 205.408C115.734 205.131 115.579 204.755 115.578 204.363V190.198C115.579 189.807 115.734 189.431 116.01 189.154C116.287 188.877 116.662 188.721 117.053 188.72H129.028C129.419 188.721 129.794 188.877 130.07 189.154C130.347 189.431 130.502 189.807 130.503 190.198V204.363C130.503 204.755 130.347 205.131 130.071 205.408C129.794 205.685 129.419 205.841 129.028 205.841Z" fill="#CCCCCC"/>
<path d="M153.709 216.038H116.674C116.327 216.038 115.993 215.899 115.747 215.653C115.501 215.407 115.363 215.072 115.363 214.724C115.363 214.375 115.501 214.041 115.747 213.795C115.993 213.548 116.327 213.41 116.674 213.41H153.709C154.056 213.41 154.39 213.548 154.636 213.795C154.881 214.041 155.019 214.375 155.019 214.724C155.019 215.072 154.881 215.407 154.636 215.653C154.39 215.899 154.056 216.038 153.709 216.038Z" fill="#CCCCCC"/>
<path d="M153.709 222.939H116.674C116.327 222.939 115.993 222.8 115.747 222.554C115.501 222.308 115.363 221.973 115.363 221.625C115.363 221.276 115.501 220.942 115.747 220.696C115.993 220.449 116.327 220.311 116.674 220.311H153.709C154.056 220.311 154.39 220.449 154.636 220.696C154.881 220.942 155.019 221.276 155.019 221.625C155.019 221.973 154.881 222.308 154.636 222.554C154.39 222.8 154.056 222.939 153.709 222.939Z" fill="#CCCCCC"/>
<path d="M153.709 229.835H116.674C116.327 229.835 115.993 229.696 115.747 229.45C115.501 229.203 115.363 228.869 115.363 228.521C115.363 228.172 115.501 227.838 115.747 227.591C115.993 227.345 116.327 227.207 116.674 227.207H153.709C154.056 227.207 154.39 227.345 154.636 227.591C154.881 227.838 155.019 228.172 155.019 228.521C155.019 228.869 154.881 229.203 154.636 229.45C154.39 229.696 154.056 229.835 153.709 229.835Z" fill="#CCCCCC"/>
<path d="M153.709 236.735H116.674C116.327 236.735 115.993 236.596 115.747 236.35C115.501 236.104 115.363 235.769 115.363 235.421C115.363 235.072 115.501 234.738 115.747 234.492C115.993 234.245 116.327 234.107 116.674 234.107H153.709C154.056 234.107 154.39 234.245 154.636 234.492C154.881 234.738 155.019 235.072 155.019 235.421C155.019 235.769 154.881 236.104 154.636 236.35C154.39 236.596 154.056 236.735 153.709 236.735Z" fill="#CCCCCC"/>
<path d="M153.709 243.632H116.674C116.327 243.632 115.993 243.493 115.747 243.247C115.501 243.001 115.363 242.666 115.363 242.318C115.363 241.969 115.501 241.635 115.747 241.389C115.993 241.142 116.327 241.004 116.674 241.004H153.709C154.056 241.004 154.39 241.142 154.636 241.389C154.881 241.635 155.019 241.969 155.019 242.318C155.019 242.666 154.881 243.001 154.636 243.247C154.39 243.493 154.056 243.632 153.709 243.632Z" fill="#CCCCCC"/>
<path d="M96.4297 253.91H172.9C173.005 253.91 173.104 253.869 173.178 253.795C173.251 253.721 173.293 253.621 173.293 253.517C173.293 253.412 173.251 253.312 173.178 253.239C173.104 253.165 173.005 253.124 172.9 253.124H96.4297C96.3256 253.123 96.2256 253.164 96.1516 253.237C96.0776 253.311 96.0357 253.41 96.0352 253.515C96.0346 253.619 96.0754 253.719 96.1485 253.793C96.2217 253.867 96.3213 253.909 96.4253 253.91H96.4297Z" fill="#CCCCCC"/>
<path d="M372.723 181.813C372.723 181.813 377.489 191.941 376.726 194.998C376.28 196.856 376.482 198.812 377.298 200.539L386.068 200.157L394.265 192.321C394.265 192.321 381.874 183.724 382.636 179.518C383.399 175.313 372.723 181.813 372.723 181.813Z" fill="#ED9DA0"/>
<path d="M394.838 197.864L398.65 221.558C398.65 221.558 398.65 242.959 397.509 243.341C396.367 243.723 391.408 243.341 391.408 243.341V219.265L392.933 198.246L394.838 197.864Z" fill="#022648"/>
<path opacity="0.1" d="M394.838 197.864L398.65 221.558C398.65 221.558 398.65 242.959 397.509 243.341C396.367 243.723 391.408 243.341 391.408 243.341V219.265L392.933 198.246L394.838 197.864Z" fill="black"/>
<path d="M417.715 336.971L420.765 348.818L425.34 345.379L429.534 335.825L424.197 329.328L417.715 336.971Z" fill="#ED9DA0"/>
<path d="M429.535 334.296C429.535 334.296 424.578 338.117 424.578 341.94C424.578 341.94 421.91 346.143 418.859 345.761V353.787C418.859 353.787 409.327 358.755 416.571 359.9C423.815 361.044 429.153 351.874 429.153 351.874C429.153 351.874 436.017 340.792 434.873 339.263C433.729 337.734 429.535 334.296 429.535 334.296Z" fill="#090814"/>
<path d="M394.81 241.535C394.81 241.535 402.083 249.456 398.651 261.684C398.651 261.684 394.838 289.2 407.04 299.518C419.241 309.836 427.247 332.381 427.247 332.381L418.097 340.789C418.097 340.789 408.184 318.241 397.889 309.451C387.594 300.662 386.45 290.725 386.45 290.725V255.953L384.543 241.43L394.81 241.535Z" fill="#090814"/>
<path opacity="0.1" d="M394.81 241.535C394.81 241.535 402.083 249.456 398.651 261.684C398.651 261.684 394.838 289.2 407.04 299.518C419.241 309.836 427.247 332.381 427.247 332.381L418.097 340.789C418.097 340.789 408.184 318.241 397.889 309.451C387.594 300.662 386.45 290.725 386.45 290.725V255.953L384.543 241.43L394.81 241.535Z" fill="#6F6F6F"/>
<path d="M385.307 345.761L381.494 349.965L383.019 353.404L387.595 354.933L395.602 351.875L394.46 347.289L385.307 345.761Z" fill="#ED9DA0"/>
<path d="M395.6 349.964C395.6 349.964 386.778 354.55 384.572 352.639C383.929 352.099 383.403 351.434 383.025 350.684C382.646 349.934 382.424 349.114 382.372 348.276C382.372 348.276 377.955 348.821 375.014 350.728C372.073 352.636 368.454 353.302 366.192 354.932C363.93 356.562 363.986 359.517 370.971 359.899C377.955 360.281 395.603 359.518 395.603 357.606L395.6 349.964Z" fill="#090814"/>
<path d="M370.818 246.398C370.818 246.398 365.861 268.565 374.63 293.788C374.63 293.788 378.824 307.929 380.73 312.131C382.637 316.334 384.543 346.143 383.782 347.29C383.782 347.29 389.882 352.258 395.22 348.816C395.22 348.816 394.839 331.237 395.601 329.708C396.362 328.18 397.126 314.804 392.55 303.721C387.975 292.639 391.789 265.887 391.789 265.887C391.789 265.887 400.936 252.129 394.073 244.103L370.818 246.398Z" fill="#090814"/>
<path d="M376.537 184.488C382.434 184.488 387.213 179.697 387.213 173.788C387.213 167.878 382.434 163.087 376.537 163.087C370.641 163.087 365.861 167.878 365.861 173.788C365.861 179.697 370.641 184.488 376.537 184.488Z" fill="#ED9DA0"/>
<path d="M396.364 243.721C396.364 243.721 393.314 248.308 391.026 246.015C389.414 244.398 379.088 247.91 373.131 250.123C370.637 251.049 368.91 251.747 368.91 251.747C368.91 251.747 368.747 246.451 368.262 239.743C367.705 232.046 366.729 222.484 365.097 216.972C362.047 206.653 369.673 202.45 369.673 202.45C369.673 202.45 376.155 194.807 375.775 193.66C375.395 192.513 392.932 186.781 392.932 186.781C394.839 187.163 396.364 204.36 396.364 204.36C396.364 204.36 392.932 218.118 391.026 226.526C389.12 234.934 396.364 243.721 396.364 243.721Z" fill="#022648"/>
<path d="M363.573 244.105C363.573 244.105 355.184 252.513 350.99 254.806C346.797 257.099 344.508 264.742 347.94 266.271C351.372 267.799 358.997 257.863 358.997 257.863L370.054 248.691L363.573 244.105Z" fill="#ED9DA0"/>
<path d="M365.158 167.395C364.182 167.483 363.625 168.714 363.94 169.643C364.136 170.094 364.431 170.495 364.801 170.817C365.172 171.139 365.61 171.374 366.083 171.505C367.007 171.832 367.995 171.941 368.92 172.263C369.84 172.6 370.694 173.097 371.442 173.73C374.077 175.894 375.638 179.19 376.134 182.568C376.54 185.97 376.222 189.42 375.2 192.69C374.703 194.429 373.895 196.335 372.197 196.953C374.051 196.494 375.862 195.878 377.612 195.112C378.894 194.507 380.098 193.741 381.395 193.166C383.313 192.381 385.326 191.852 387.381 191.592C388.824 191.366 390.35 191.193 391.706 191.74C392.537 192.128 393.302 192.645 393.973 193.272L398.333 196.945C398.41 195.348 398.46 193.751 398.484 192.152C398.589 190.763 398.42 189.367 397.989 188.043C397.484 186.767 396.527 185.728 395.887 184.516C394.301 181.518 394.818 177.905 394.847 174.511C394.878 170.997 394.314 167.416 392.691 164.301C391.068 161.187 388.297 158.579 384.915 157.646C380.36 156.388 375.556 158.258 371.37 160.453C370.384 160.922 369.466 161.522 368.638 162.235C367.758 163.136 367.011 164.158 366.418 165.27L364.343 168.752" fill="#090814"/>
<path opacity="0.1" d="M392.169 208.182C392.169 208.182 384.924 235.698 384.162 237.609C383.613 238.981 377.154 246.28 373.132 250.125C370.638 251.052 368.91 251.748 368.91 251.748C368.91 251.748 368.747 246.45 368.262 239.744C371.365 236.292 374.63 233.022 374.63 233.022C374.63 233.022 378.061 212.003 377.68 203.977C377.299 195.951 385.306 194.041 385.306 194.041C394.456 195.189 392.169 208.182 392.169 208.182Z" fill="black"/>
<path d="M384.162 192.513C384.162 192.513 376.155 194.424 376.536 202.449C376.917 210.474 373.485 231.494 373.485 231.494C373.485 231.494 360.522 244.488 361.665 246.016C362.809 247.545 367.71 250.55 368.882 250.958C370.054 251.367 382.258 237.987 383.019 236.08C383.781 234.172 391.027 206.654 391.027 206.654C391.027 206.654 393.313 193.66 384.162 192.513Z" fill="#022648"/>
</g>
<defs>
<clipPath id="clip0_262_705">
<rect width="435" height="360" fill="white"/>
</clipPath>
</defs>
</svg>
