<svg width="435" height="332" viewBox="0 0 435 332" fill="none" xmlns="http://www.w3.org/2000/svg">
<g clip-path="url(#clip0_262_643)">
<path d="M315.278 216.103L258.956 187.39C258.107 186.956 257.466 186.206 257.175 185.306C256.884 184.406 256.966 183.428 257.403 182.587L260.887 175.905C261.326 175.066 262.084 174.432 262.995 174.145C263.906 173.857 264.895 173.938 265.745 174.37L322.067 203.083C322.916 203.517 323.556 204.266 323.848 205.167C324.139 206.067 324.057 207.045 323.619 207.886L320.135 214.567C319.919 214.984 319.622 215.354 319.26 215.657C318.898 215.959 318.479 216.187 318.028 216.328C317.671 216.442 317.298 216.499 316.923 216.5C316.351 216.499 315.786 216.363 315.278 216.103Z" fill="#022648"/>
<path d="M298.107 189.243C298.551 189.072 299.026 188.99 299.503 189.002C299.98 189.014 300.45 189.121 300.885 189.315L319.343 199.406C321.362 200.509 322.877 202.338 323.572 204.513C324.267 206.689 324.091 209.046 323.079 211.096C322.112 213.056 320.452 214.597 318.413 215.427C316.374 216.257 314.098 216.319 312.016 215.6L291.999 208.682C291.566 208.493 291.174 208.221 290.847 207.882C290.52 207.543 290.263 207.144 290.092 206.707C289.922 206.27 289.839 205.804 289.851 205.336C289.862 204.867 289.967 204.406 290.158 203.977L296.11 191.126C296.213 190.894 296.342 190.673 296.493 190.467C296.9 189.913 297.46 189.488 298.107 189.243Z" fill="#2F2E41"/>
<path d="M340.575 186.16C355.801 186.16 368.144 173.955 368.144 158.9C368.144 143.845 355.801 131.64 340.575 131.64C325.349 131.64 313.006 143.845 313.006 158.9C313.006 173.955 325.349 186.16 340.575 186.16Z" fill="#022648"/>
<path d="M337.193 328.435V265.778C337.194 264.833 337.575 263.926 338.251 263.258C338.927 262.589 339.843 262.213 340.799 262.212H348.402C349.358 262.213 350.275 262.589 350.951 263.258C351.627 263.926 352.007 264.833 352.008 265.778V328.435C352.007 329.38 351.627 330.286 350.951 330.955C350.275 331.623 349.358 331.999 348.402 332H340.799C339.843 331.999 338.927 331.623 338.251 330.955C337.575 330.286 337.194 329.38 337.193 328.435Z" fill="#022648"/>
<path d="M320.709 328.435V265.778C320.71 264.833 321.09 263.926 321.766 263.258C322.442 262.589 323.359 262.213 324.315 262.212H331.918C332.874 262.213 333.79 262.589 334.466 263.258C335.142 263.926 335.522 264.833 335.524 265.778V328.435C335.522 329.38 335.142 330.286 334.466 330.955C333.79 331.623 332.874 331.999 331.918 332H324.315C323.359 331.999 322.442 331.623 321.766 330.955C321.09 330.286 320.71 329.38 320.709 328.435Z" fill="#022648"/>
<path d="M341.155 169.004L341.184 167.985C339.267 167.932 337.577 167.813 336.308 166.896C335.948 166.621 335.652 166.273 335.44 165.875C335.228 165.477 335.106 165.039 335.081 164.59C335.059 164.315 335.101 164.039 335.204 163.784C335.307 163.528 335.468 163.299 335.675 163.115C336.518 162.411 337.874 162.639 338.862 163.087L339.715 163.474L338.08 151.662L337.059 151.8L338.45 161.848C337.107 161.457 335.862 161.626 335.01 162.337C334.682 162.62 334.426 162.973 334.259 163.37C334.093 163.767 334.022 164.197 334.051 164.625C334.081 165.229 334.245 165.818 334.529 166.352C334.814 166.887 335.214 167.353 335.7 167.719C337.331 168.898 339.451 168.956 341.155 169.004Z" fill="#2F2E41"/>
<path d="M332.012 152.667H326.463V153.685H332.012V152.667Z" fill="#2F2E41"/>
<path d="M349.525 152.667H343.977V153.685H349.525V152.667Z" fill="#2F2E41"/>
<path d="M366.957 276.146L357.421 214.202C357.279 213.268 357.517 212.315 358.083 211.554C358.65 210.792 359.499 210.284 360.444 210.141L367.96 209.01C368.905 208.869 369.868 209.104 370.638 209.664C371.408 210.224 371.922 211.064 372.067 211.998L381.602 273.941C381.745 274.876 381.507 275.829 380.941 276.59C380.374 277.351 379.525 277.86 378.58 278.003L371.064 279.134C370.596 279.205 370.118 279.184 369.658 279.072C369.198 278.96 368.765 278.76 368.384 278.482C368.002 278.204 367.68 277.855 367.435 277.454C367.19 277.053 367.027 276.609 366.957 276.146Z" fill="#022648"/>
<path d="M359.589 236.387C359.187 236.132 358.841 235.8 358.571 235.411C358.301 235.022 358.112 234.584 358.015 234.122L355.43 213.425C355.146 211.16 355.753 208.875 357.125 207.04C358.497 205.205 360.529 203.962 362.802 203.567C364.973 203.189 367.21 203.612 369.087 204.755C370.965 205.899 372.352 207.684 372.987 209.772L379.086 229.853C379.186 230.311 379.193 230.784 379.108 231.245C379.023 231.706 378.847 232.146 378.59 232.539C378.333 232.933 377.999 233.272 377.61 233.538C377.22 233.805 376.78 233.992 376.317 234.09L362.303 236.878C362.052 236.932 361.796 236.959 361.539 236.96C360.847 236.959 360.169 236.76 359.589 236.387Z" fill="#2F2E41"/>
<path d="M360.328 281.16H286.654C285.907 281.16 285.172 280.971 284.52 280.611C283.867 280.251 283.319 279.731 282.927 279.103C282.535 278.474 282.312 277.756 282.279 277.018C282.247 276.28 282.406 275.546 282.742 274.886L318.362 204.844C320.837 199.978 324.9 196.079 329.894 193.779C334.888 191.478 340.52 190.911 345.881 192.169C351.241 193.426 356.015 196.435 359.432 200.708C362.848 204.982 364.707 210.27 364.707 215.717V276.831C364.705 277.979 364.244 279.079 363.423 279.891C362.602 280.702 361.489 281.159 360.328 281.16Z" fill="#2F2E41"/>
<path d="M341.552 136.41C335.908 137.656 331.148 141.293 325.474 142.424C322.888 142.94 320.04 142.919 317.665 141.66C315.907 140.716 314.561 139.163 313.887 137.3C313.22 135.395 313.048 133.354 313.387 131.365C313.727 129.377 314.566 127.505 315.828 125.921C319.013 122.065 324.092 120.289 328.964 119.788C338.716 118.786 348.732 121.963 356.669 127.498C364.864 133.213 371.151 141.794 373.26 151.56C374.387 156.781 374.276 162.334 372.351 167.361C370.5 172.172 366.856 176.099 362.168 178.335C361.049 178.869 359.882 179.299 358.683 179.618C358.491 179.678 358.331 179.808 358.235 179.982C358.139 180.156 358.115 180.36 358.168 180.551C358.222 180.742 358.348 180.906 358.52 181.006C358.693 181.107 358.898 181.138 359.093 181.092C364.365 179.669 368.913 176.357 371.852 171.802C374.871 167.027 375.884 161.181 375.419 155.625C374.519 144.879 368.542 135.001 360.187 128.239C352.16 121.742 341.777 117.79 331.337 118.104C326.101 118.261 320.666 119.576 316.594 122.987C314.84 124.454 313.481 126.33 312.641 128.444C311.801 130.559 311.506 132.847 311.782 135.103C312.016 137.213 312.863 139.211 314.221 140.855C315.882 142.711 318.184 143.886 320.675 144.151C326.848 144.946 332.201 141.486 337.656 139.262C339.049 138.681 340.49 138.22 341.963 137.884C342.933 137.67 342.522 136.196 341.552 136.41Z" fill="#2F2E41"/>
<path d="M357.058 125.611C354.842 117.407 360.626 108.868 368.486 106.306C372.996 104.917 377.834 104.971 382.311 106.458C386.677 107.919 390.597 110.449 393.705 113.814C400.594 121.061 403.646 130.842 405.074 140.486C406.549 150.444 405.717 161.349 410.87 170.398C413.006 174.149 416.177 177.434 420.274 179.049C424.097 180.556 428.676 180.563 432.338 178.605C433.219 178.128 434.034 177.539 434.762 176.854C435.487 176.178 434.392 175.099 433.669 175.774C430.603 178.635 426.032 179.174 422.091 178.052C417.792 176.827 414.483 173.56 412.303 169.798C409.781 165.448 408.731 160.476 408.159 155.542C407.534 150.157 407.293 144.742 406.458 139.378C404.952 129.704 401.699 119.993 394.798 112.733C391.641 109.343 387.706 106.754 383.324 105.184C378.812 103.587 373.924 103.343 369.272 104.483C365.045 105.566 361.318 108.044 358.709 111.507C356.174 114.794 354.884 118.855 355.066 122.985C355.132 124.01 355.3 125.025 355.568 126.017C355.628 126.206 355.76 126.365 355.936 126.46C356.112 126.555 356.318 126.579 356.512 126.526C356.705 126.473 356.87 126.348 356.972 126.178C357.074 126.007 357.105 125.804 357.058 125.611Z" fill="#2F2E41"/>
<path d="M53.7065 195.08H8.75708C6.43536 195.078 4.20948 194.165 2.56778 192.541C0.92607 190.918 0.00261366 188.717 0 186.421V8.65892C0.00261366 6.36323 0.92607 4.1623 2.56778 2.539C4.20948 0.915693 6.43536 0.00258436 8.75708 0H130.677L152.991 19.7007V55.5189H151.961V20.1568L130.284 1.0187H8.75708C6.70851 1.02099 4.7445 1.82667 3.29594 3.259C1.84738 4.69132 1.03256 6.63331 1.03024 8.65892V186.421C1.03256 188.447 1.84738 190.389 3.29594 191.821C4.7445 193.254 6.70851 194.059 8.75708 194.062H53.7065V195.08Z" fill="#CCCCCC"/>
<path d="M152.476 20.3739H138.568C136.246 20.3713 134.02 19.4582 132.378 17.8349C130.737 16.2116 129.813 14.0107 129.811 11.715V0.509348C129.811 0.374261 129.865 0.244705 129.961 0.149184C130.058 0.0536629 130.189 0 130.326 0C130.462 0 130.593 0.0536629 130.69 0.149184C130.787 0.244705 130.841 0.374261 130.841 0.509348V11.715C130.843 13.7406 131.658 15.6826 133.106 17.1149C134.555 18.5472 136.519 19.3529 138.568 19.3552H152.476C152.613 19.3552 152.744 19.4089 152.84 19.5044C152.937 19.5999 152.991 19.7295 152.991 19.8646C152.991 19.9997 152.937 20.1292 152.84 20.2247C152.744 20.3203 152.613 20.3739 152.476 20.3739Z" fill="#CCCCCC"/>
<path d="M135.241 46.0959H17.7929C16.6999 46.0959 15.6517 46.5253 14.8789 47.2894C14.106 48.0536 13.6719 49.09 13.6719 50.1707C13.6719 51.2514 14.106 52.2879 14.8789 53.052C15.6517 53.8162 16.6999 54.2455 17.7929 54.2455H135.241C136.334 54.2455 137.382 53.8162 138.155 53.052C138.928 52.2879 139.362 51.2514 139.362 50.1707C139.362 49.09 138.928 48.0536 138.155 47.2894C137.382 46.5253 136.334 46.0959 135.241 46.0959Z" fill="#E6E6E6"/>
<path d="M76.0017 28.7782H17.7929C16.6999 28.7782 15.6517 29.2075 14.8789 29.9717C14.106 30.7358 13.6719 31.7723 13.6719 32.853C13.6719 33.9337 14.106 34.9701 14.8789 35.7343C15.6517 36.4985 16.6999 36.9278 17.7929 36.9278H76.0017C77.0946 36.9278 78.1428 36.4985 78.9156 35.7343C79.6885 34.9701 80.1227 33.9337 80.1227 32.853C80.1227 31.7723 79.6885 30.7358 78.9156 29.9717C78.1428 29.2075 77.0946 28.7782 76.0017 28.7782Z" fill="#E6E6E6"/>
<path d="M17.7929 80.2224C16.6999 80.2224 15.6517 80.6517 14.8789 81.4159C14.106 82.1801 13.6719 83.2165 13.6719 84.2972C13.6719 85.3779 14.106 86.4143 14.8789 87.1785C15.6517 87.9427 16.6999 88.372 17.7929 88.372H54.6035V80.2224H17.7929Z" fill="#E6E6E6"/>
<path d="M17.7929 62.9045C17.2517 62.9045 16.7158 63.0099 16.2158 63.2147C15.7158 63.4195 15.2615 63.7196 14.8789 64.098C14.4962 64.4764 14.1927 64.9256 13.9856 65.42C13.7785 65.9143 13.6719 66.4442 13.6719 66.9793C13.6719 67.5144 13.7785 68.0443 13.9856 68.5387C14.1927 69.033 14.4962 69.4822 14.8789 69.8606C15.2615 70.239 15.7158 70.5392 16.2158 70.7439C16.7158 70.9487 17.2517 71.0541 17.7929 71.0541H54.6035V62.9045H17.7929Z" fill="#E6E6E6"/>
<path d="M54.861 166.557H21.8726C19.6191 166.554 17.4587 165.668 15.8653 164.093C14.2719 162.517 13.3756 160.381 13.373 158.153V115.367C13.3756 113.139 14.2719 111.003 15.8653 109.427C17.4587 107.852 19.6191 106.966 21.8726 106.963H54.861V166.557Z" fill="#E6E6E6"/>
<path d="M108.052 249.835H63.1028C60.7811 249.833 58.5552 248.919 56.9135 247.296C55.2718 245.673 54.3483 243.472 54.3457 241.176V63.4138C54.3483 61.1181 55.2718 58.9172 56.9135 57.2939C58.5552 55.6706 60.7811 54.7575 63.1028 54.7549H185.022L207.337 74.4556V108.236H206.307V74.9117L184.629 55.7736H63.1028C61.0542 55.7759 59.0902 56.5816 57.6416 58.0139C56.1931 59.4462 55.3783 61.3882 55.3759 63.4138V241.176C55.3783 243.202 56.1931 245.144 57.6416 246.576C59.0902 248.008 61.0542 248.814 63.1028 248.816H108.052V249.835Z" fill="#CCCCCC"/>
<path d="M206.822 75.1288H192.913C190.592 75.1262 188.366 74.2131 186.724 72.5898C185.082 70.9665 184.159 68.7656 184.156 66.4699V55.2642C184.156 55.1291 184.211 54.9996 184.307 54.9041C184.404 54.8085 184.535 54.7549 184.671 54.7549C184.808 54.7549 184.939 54.8085 185.036 54.9041C185.132 54.9996 185.186 55.1291 185.186 55.2642V66.4699C185.189 68.4955 186.004 70.4375 187.452 71.8698C188.901 73.3021 190.865 74.1078 192.913 74.1101H206.822C206.958 74.1101 207.089 74.1638 207.186 74.2593C207.283 74.3548 207.337 74.4844 207.337 74.6194C207.337 74.7545 207.283 74.8841 207.186 74.9796C207.089 75.0751 206.958 75.1288 206.822 75.1288Z" fill="#CCCCCC"/>
<path d="M189.586 100.851H72.1386C71.0456 100.851 69.9974 101.28 69.2246 102.044C68.4517 102.808 68.0176 103.845 68.0176 104.926C68.0176 106.006 68.4517 107.043 69.2246 107.807C69.9974 108.571 71.0456 109 72.1386 109H189.586C190.679 109 191.728 108.571 192.5 107.807C193.273 107.043 193.707 106.006 193.707 104.926C193.707 103.845 193.273 102.808 192.5 102.044C191.728 101.28 190.679 100.851 189.586 100.851Z" fill="#E6E6E6"/>
<path d="M130.347 83.533H72.1386C71.0456 83.533 69.9974 83.9623 69.2246 84.7264C68.4517 85.4906 68.0176 86.527 68.0176 87.6077C68.0176 88.6884 68.4517 89.7249 69.2246 90.4891C69.9974 91.2532 71.0456 91.6825 72.1386 91.6825H130.347C131.44 91.6825 132.489 91.2532 133.261 90.4891C134.034 89.7249 134.468 88.6884 134.468 87.6077C134.468 86.527 134.034 85.4906 133.261 84.7264C132.489 83.9623 131.44 83.533 130.347 83.533Z" fill="#E6E6E6"/>
<path d="M189.586 100.851H72.1386C71.0456 100.851 69.9974 101.28 69.2246 102.044C68.4517 102.808 68.0176 103.845 68.0176 104.926C68.0176 106.006 68.4517 107.043 69.2246 107.807C69.9974 108.571 71.0456 109 72.1386 109H189.586C190.679 109 191.728 108.571 192.5 107.807C193.273 107.043 193.707 106.006 193.707 104.926C193.707 103.845 193.273 102.808 192.5 102.044C191.728 101.28 190.679 100.851 189.586 100.851Z" fill="#E6E6E6"/>
<path d="M130.347 83.533H72.1386C71.0456 83.533 69.9974 83.9623 69.2246 84.7264C68.4517 85.4906 68.0176 86.527 68.0176 87.6077C68.0176 88.6884 68.4517 89.7249 69.2246 90.4891C69.9974 91.2532 71.0456 91.6825 72.1386 91.6825H130.347C131.44 91.6825 132.489 91.2532 133.261 90.4891C134.034 89.7249 134.468 88.6884 134.468 87.6077C134.468 86.527 134.034 85.4906 133.261 84.7264C132.489 83.9623 131.44 83.533 130.347 83.533Z" fill="#E6E6E6"/>
<path d="M72.1386 134.977C71.0456 134.977 69.9974 135.407 69.2246 136.171C68.4517 136.935 68.0176 137.971 68.0176 139.052C68.0176 140.133 68.4517 141.169 69.2246 141.933C69.9974 142.698 71.0456 143.127 72.1386 143.127H108.949V134.977H72.1386Z" fill="#E6E6E6"/>
<path d="M72.1386 117.659C71.0456 117.659 69.9974 118.089 69.2246 118.853C68.4517 119.617 68.0176 120.654 68.0176 121.734C68.0176 122.815 68.4517 123.851 69.2246 124.616C69.9974 125.38 71.0456 125.809 72.1386 125.809H108.949V117.659H72.1386Z" fill="#E6E6E6"/>
<path d="M72.1386 134.977C71.0456 134.977 69.9974 135.407 69.2246 136.171C68.4517 136.935 68.0176 137.971 68.0176 139.052C68.0176 140.133 68.4517 141.169 69.2246 141.933C69.9974 142.698 71.0456 143.127 72.1386 143.127H108.949V134.977H72.1386Z" fill="#E6E6E6"/>
<path d="M72.1386 117.659C71.0456 117.659 69.9974 118.089 69.2246 118.853C68.4517 119.617 68.0176 120.654 68.0176 121.734C68.0176 122.815 68.4517 123.851 69.2246 124.616C69.9974 125.38 71.0456 125.809 72.1386 125.809H108.949V117.659H72.1386Z" fill="#E6E6E6"/>
<path d="M109.207 221.312H76.2183C73.9648 221.309 71.8044 220.423 70.211 218.847C68.6176 217.272 67.7213 215.136 67.7188 212.908V170.122C67.7213 167.894 68.6176 165.758 70.211 164.182C71.8044 162.607 73.9648 161.721 76.2183 161.718H109.207V221.312Z" fill="#E6E6E6"/>
<path d="M112.111 110.019C110.831 110.792 109.773 111.877 109.039 113.17C108.304 114.464 107.918 115.922 107.918 117.405V118.678H108.948V117.405C108.95 115.72 109.514 114.084 110.553 112.748C111.591 111.413 113.046 110.454 114.692 110.019H112.111ZM238.594 108.746H116.675C114.353 108.749 112.128 109.662 110.486 111.285C108.844 112.908 107.921 115.109 107.918 117.405V295.167C107.921 297.463 108.845 299.663 110.487 301.286C112.128 302.91 114.354 303.823 116.675 303.826H252.152C254.474 303.823 256.699 302.91 258.341 301.286C259.982 299.663 260.906 297.463 260.909 295.167V128.447L238.594 108.746ZM259.879 295.167C259.877 297.193 259.062 299.135 257.613 300.567C256.165 301.999 254.201 302.805 252.152 302.807H116.675C114.627 302.805 112.663 301.999 111.214 300.567C109.766 299.135 108.951 297.193 108.948 295.167L108.948 117.405C108.95 115.72 109.514 114.084 110.553 112.748C111.591 111.413 113.046 110.454 114.692 110.019C115.339 109.849 116.006 109.763 116.675 109.765H238.203L259.879 128.901V295.167ZM112.111 110.019C110.831 110.792 109.773 111.877 109.039 113.17C108.304 114.464 107.918 115.922 107.918 117.405V118.678H108.948V117.405C108.95 115.72 109.514 114.084 110.553 112.748C111.591 111.413 113.046 110.454 114.692 110.019H112.111Z" fill="#3F3D56"/>
<path d="M260.394 129.12H246.486C244.164 129.117 241.938 128.204 240.296 126.581C238.655 124.957 237.731 122.757 237.729 120.461V109.255C237.729 109.12 237.783 108.991 237.879 108.895C237.976 108.8 238.107 108.746 238.244 108.746C238.38 108.746 238.511 108.8 238.608 108.895C238.705 108.991 238.759 109.12 238.759 109.255V120.461C238.761 122.486 239.576 124.428 241.024 125.861C242.473 127.293 244.437 128.099 246.486 128.101H260.394C260.531 128.101 260.662 128.155 260.758 128.25C260.855 128.346 260.909 128.475 260.909 128.61C260.909 128.746 260.855 128.875 260.758 128.971C260.662 129.066 260.531 129.12 260.394 129.12Z" fill="#3F3D56"/>
<path d="M243.159 162.991H125.711C124.618 162.991 123.57 162.562 122.797 161.798C122.024 161.034 121.59 159.997 121.59 158.917C121.59 157.836 122.024 156.799 122.797 156.035C123.57 155.271 124.618 154.842 125.711 154.842H243.159C244.252 154.842 245.3 155.271 246.073 156.035C246.845 156.799 247.28 157.836 247.28 158.917C247.28 159.997 246.845 161.034 246.073 161.798C245.3 162.562 244.252 162.991 243.159 162.991Z" fill="#CCCCCC"/>
<path d="M183.92 145.673H125.711C124.618 145.673 123.57 145.244 122.797 144.48C122.024 143.716 121.59 142.679 121.59 141.599C121.59 140.518 122.024 139.482 122.797 138.717C123.57 137.953 124.618 137.524 125.711 137.524H183.92C185.013 137.524 186.061 137.953 186.834 138.717C187.606 139.482 188.041 140.518 188.041 141.599C188.041 142.679 187.606 143.716 186.834 144.48C186.061 145.244 185.013 145.673 183.92 145.673Z" fill="#CCCCCC"/>
<path d="M243.159 197.118H125.711C124.618 197.118 123.57 196.688 122.797 195.924C122.024 195.16 121.59 194.124 121.59 193.043C121.59 191.962 122.024 190.926 122.797 190.162C123.57 189.397 124.618 188.968 125.711 188.968H243.159C244.252 188.968 245.3 189.397 246.073 190.162C246.845 190.926 247.28 191.962 247.28 193.043C247.28 194.124 246.845 195.16 246.073 195.924C245.3 196.688 244.252 197.118 243.159 197.118Z" fill="#CCCCCC"/>
<path d="M183.92 179.8H125.711C124.618 179.8 123.57 179.371 122.797 178.606C122.024 177.842 121.59 176.806 121.59 175.725C121.59 174.644 122.024 173.608 122.797 172.844C123.57 172.08 124.618 171.65 125.711 171.65H183.92C185.013 171.65 186.061 172.08 186.834 172.844C187.606 173.608 188.041 174.644 188.041 175.725C188.041 176.806 187.606 177.842 186.834 178.606C186.061 179.371 185.013 179.8 183.92 179.8Z" fill="#CCCCCC"/>
<path d="M238.996 275.303H129.791C127.537 275.3 125.377 274.414 123.783 272.838C122.19 271.263 121.294 269.127 121.291 266.898V224.113C121.294 221.885 122.19 219.749 123.783 218.173C125.377 216.598 127.537 215.712 129.791 215.709H238.996C241.25 215.712 243.41 216.598 245.004 218.173C246.597 219.749 247.493 221.885 247.496 224.113V266.898C247.493 269.127 246.597 271.263 245.004 272.838C243.41 274.414 241.25 275.3 238.996 275.303Z" fill="#022648"/>
</g>
<defs>
<clipPath id="clip0_262_643">
<rect width="435" height="332" fill="white"/>
</clipPath>
</defs>
</svg>
